HIERARCHY
ROOT SpineBase
{
  OFFSET 0.000000 0.000000 0.000000
  CHANNELS 6 Xposition Yposition Zposition Zrotation Xrotation Yrotation
  JOINT SpineMid
  {
    OFFSET 0.000000 26.595630 0.000000
    CHANNELS 3 Zrotation Xrotation Yrotation
    JOINT SpineShoulder
    {
      OFFSET 0.777743 19.617458 -0.912288
      CHANNELS 3 Zrotation Xrotation Yrotation
      JOINT Neck
      {
        OFFSET 0.468100 6.537096 -0.664066
        CHANNELS 3 Zrotation Xrotation Yrotation
        JOINT Head
        {
          OFFSET -1.489172 12.061744 -4.067333
          CHANNELS 3 Zrotation Xrotation Yrotation
          End Site
          {
            OFFSET 0 0 0
          }
        }
      }
      JOINT ShoulderLeft
      {
        OFFSET -17.559474 -2.270541 3.928936
        CHANNELS 3 Zrotation Xrotation Yrotation
        JOINT ElbowLeft
        {
          OFFSET -4.982679 -26.954459 4.510247
          CHANNELS 3 Zrotation Xrotation Yrotation
          JOINT WristLeft
          {
            OFFSET -2.081648 -20.881996 -2.393012
            CHANNELS 3 Zrotation Xrotation Yrotation
            JOINT HandLeft
            {
              OFFSET 0.099625 -3.685490 1.145447
              CHANNELS 3 Zrotation Xrotation Yrotation
              JOINT HandTipLeft
              {
                OFFSET -0.672901 -4.576957 0.188361
                CHANNELS 3 Zrotation Xrotation Yrotation
                End Site
                {
                  OFFSET 0 0 0
                }
              }
              JOINT ThumbLeft
              {
                OFFSET -2.240458 -0.336991 -1.896984
                CHANNELS 3 Zrotation Xrotation Yrotation
                End Site
                {
                  OFFSET 0 0 0
                }
              }
            }
          }
        }
      }
      JOINT ShoulderRight
      {
        OFFSET 14.350034 -1.310359 -2.278344
        CHANNELS 3 Zrotation Xrotation Yrotation
        JOINT ElbowRight
        {
          OFFSET 5.764606 -24.344432 1.193177
          CHANNELS 3 Zrotation Xrotation Yrotation
          JOINT WristRight
          {
            OFFSET -1.155301 -19.887796 -6.803040
            CHANNELS 3 Zrotation Xrotation Yrotation
            JOINT HandRight
            {
              OFFSET -1.932545 -4.415312 -2.452539
              CHANNELS 3 Zrotation Xrotation Yrotation
              JOINT HandTipRight
              {
                OFFSET -0.105073 -6.395020 -2.168445
                CHANNELS 3 Zrotation Xrotation Yrotation
                End Site
                {
                  OFFSET 0 0 0
                }
              }
              JOINT ThumbRight
              {
                OFFSET -0.927593 -0.494982 -0.826704
                CHANNELS 3 Zrotation Xrotation Yrotation
                End Site
                {
                  OFFSET 0 0 0
                }
              }
            }
          }
        }
      }
    }
  }
  JOINT HipLeft
  {
    OFFSET -6.137422 0.147095 -2.434706
    CHANNELS 3 Zrotation Xrotation Yrotation
    JOINT KneeLeft
    {
      OFFSET -3.740030 -26.071542 3.731916
      CHANNELS 3 Zrotation Xrotation Yrotation
      JOINT AnkleLeft
      {
        OFFSET -3.199077 -34.838412 9.660806
        CHANNELS 3 Zrotation Xrotation Yrotation
        JOINT FootLeft
        {
          OFFSET -1.409422 -3.066046 -12.446518
          CHANNELS 3 Zrotation Xrotation Yrotation
          End Site
          {
            OFFSET 0 0 0
          }
        }
      }
    }
  }
  JOINT HipRight
  {
    OFFSET 6.998481 2.002917 -3.489548
    CHANNELS 3 Zrotation Xrotation Yrotation
    JOINT KneeRight
    {
      OFFSET 5.093514 -24.037110 -4.605063
      CHANNELS 3 Zrotation Xrotation Yrotation
      JOINT AnkleRight
      {
        OFFSET 2.862534 -28.387273 2.457104
        CHANNELS 3 Zrotation Xrotation Yrotation
        JOINT FootRight
        {
          OFFSET -1.232452 -3.317436 -11.920421
          CHANNELS 3 Zrotation Xrotation Yrotation
          End Site
          {
            OFFSET 0 0 0
          }
        }
      }
    }
  }
}
MOTION
Frames: 5
Frame Time: 0.033333
-62.321335 76.224583 373.747446 -7.430550 -15.094950 2.269399 1.324163 2.917330 -3.054962 0.658567 -3.923788 0.139362 -9.714012 19.747051 -1.224959 0.000000 0.000000 0.000000 2.597149 14.339068 -0.766105 5.885002 6.007793 -0.817934 -26.107437 23.087941 -2.206481 33.283379 -26.559162 16.249772 0.000000 0.000000 0.000000 0.000000 0.000000 0.000000 40.511396 8.517071 -8.339722 -42.739686 9.183987 4.022268 26.677555 -10.644366 -8.557363 -3.119622 26.559247 -1.073865 0.000000 0.000000 0.000000 0.000000 0.000000 0.000000 21.979493 22.050452 -8.175630 -16.105135 -8.631474 -3.030416 4.210431 -4.298789 1.941912 0.000000 0.000000 0.000000 12.214568 13.041828 -6.283472 2.382997 6.611680 1.718342 24.760274 29.388532 -61.619387 0.000000 0.000000 0.000000
-61.530460 75.627675 371.791713 -6.258821 -12.533807 2.427201 1.103286 2.337336 -2.954352 0.437706 -4.206950 0.168346 -10.152642 17.630763 -1.571485 0.000000 0.000000 0.000000 2.150480 13.752767 -0.829021 6.913616 6.731397 -1.034334 -27.807031 32.521826 0.173240 33.802860 -37.204750 19.275700 0.000000 0.000000 0.000000 0.000000 0.000000 0.000000 38.445662 9.606698 -7.175040 -41.108813 6.339404 2.688468 32.839350 -3.108972 -16.680526 -3.228245 20.454510 3.123450 0.000000 0.000000 0.000000 0.000000 0.000000 0.000000 18.075262 15.761949 -5.691849 -14.482799 -4.609271 -2.628483 4.076228 1.772205 -0.224587 0.000000 0.000000 0.000000 9.874045 7.752616 -5.871685 3.048542 9.735221 1.967012 36.512972 44.950514 -70.065410 0.000000 0.000000 0.000000
-61.504884 75.148158 370.830852 -6.097402 -11.327562 2.740423 1.346440 2.888103 -3.233466 0.728713 -3.839227 0.156454 -10.366282 14.387502 -2.149525 0.000000 0.000000 0.000000 1.297122 12.263998 -0.774566 8.531312 8.578100 -1.434540 -24.397094 36.670792 1.488323 32.907129 -40.802231 20.266909 0.000000 0.000000 0.000000 0.000000 0.000000 0.000000 44.476798 5.701022 -6.302589 -51.541914 8.232075 5.000619 29.216473 -10.695257 -9.348006 3.505976 27.912429 -5.046978 0.000000 0.000000 0.000000 0.000000 0.000000 0.000000 15.641339 11.167839 -4.581559 -12.107060 0.129790 -2.227775 4.799997 4.099404 -5.905599 0.000000 0.000000 0.000000 10.543606 5.200100 -6.487699 0.089824 11.351464 2.511048 52.814600 55.784584 -82.003550 0.000000 0.000000 0.000000
-62.094750 74.938417 369.139394 -6.737218 -8.299386 3.905551 1.642574 1.613168 -4.406401 0.993607 -3.016213 0.074048 -9.728589 11.905772 -2.432590 0.000000 0.000000 0.000000 0.443918 9.221224 -0.551882 11.574456 12.140267 -2.380251 -19.795225 37.300389 2.043884 24.350814 -42.013148 14.971856 0.000000 0.000000 0.000000 0.000000 0.000000 0.000000 50.632369 2.821270 -4.590625 -60.490333 8.918546 6.536093 28.075609 -14.854345 -6.092076 -1.011439 31.660900 -4.208528 0.000000 0.000000 0.000000 0.000000 0.000000 0.000000 14.419572 2.356253 -3.756050 -9.966679 8.571868 -2.209623 8.275577 9.033976 -19.537270 0.000000 0.000000 0.000000 12.157339 -0.558816 -7.932399 -4.406086 13.911772 3.636029 71.560247 61.634406 -96.497201 0.000000 0.000000 0.000000
-62.576438 75.362717 369.306796 -7.289174 -8.123476 4.958171 1.834857 1.537810 -5.515961 1.212327 -1.668168 0.010337 -8.734824 10.793522 -2.400293 0.000000 0.000000 0.000000 0.557057 8.202109 -0.555439 12.870741 13.779755 -2.858254 -16.576968 31.661002 1.727047 20.111430 -33.929224 10.696723 0.000000 0.000000 0.000000 0.000000 0.000000 0.000000 51.949566 3.376133 -3.710234 -63.539727 8.499041 6.257100 27.944831 -19.043345 -3.554104 -8.871671 34.712173 -0.289745 0.000000 0.000000 0.000000 0.000000 0.000000 0.000000 12.787565 -0.635747 -4.406782 -0.537675 14.059766 -1.758492 11.098747 15.366443 -42.499464 0.000000 0.000000 0.000000 13.878209 -1.154333 -9.280269 -10.348923 13.001277 4.339262 79.741955 66.994460 -97.886563 0.000000 0.000000 0.000000
